<?xml version="1.0" encoding="UTF-8"?>
<svg width="1200" height="500" xmlns="http://www.w3.org/2000/svg">
  <defs>
    <!-- Gradient for price area -->
    <linearGradient id="priceGradient" x1="0%" y1="0%" x2="0%" y2="100%">
      <stop offset="0%" style="stop-color:#FF6B35;stop-opacity:0.2" />
      <stop offset="100%" style="stop-color:#FF6B35;stop-opacity:0.05" />
    </linearGradient>
    
    <!-- Drop shadow filter -->
    <filter id="dropshadow" x="-50%" y="-50%" width="200%" height="200%">
      <feDropShadow dx="1" dy="1" stdDeviation="2" flood-color="#000000" flood-opacity="0.2"/>
    </filter>
  </defs>
  
  <!-- Background with subtle pattern -->
  <rect width="1200" height="500" fill="#FEF7F0"/>
  
  <!-- Chart background -->
  <rect x="120" y="80" width="980" height="300" 
        fill="white" stroke="#E5E7EB" stroke-width="1" rx="4"/>
  
  <!-- Grid lines -->
  <line x1="120" x2="1100" 
                        y1="80" y2="80" 
                        stroke="#F3F4F6" stroke-width="1" opacity="0.8"/><line x1="120" x2="1100" 
                        y1="140" y2="140" 
                        stroke="#F3F4F6" stroke-width="1" opacity="0.8"/><line x1="120" x2="1100" 
                        y1="200" y2="200" 
                        stroke="#F3F4F6" stroke-width="1" opacity="0.8"/><line x1="120" x2="1100" 
                        y1="260" y2="260" 
                        stroke="#F3F4F6" stroke-width="1" opacity="0.8"/><line x1="120" x2="1100" 
                        y1="320" y2="320" 
                        stroke="#F3F4F6" stroke-width="1" opacity="0.8"/><line x1="120" x2="1100" 
                        y1="380" y2="380" 
                        stroke="#F3F4F6" stroke-width="1" opacity="0.8"/><line x1="120" x2="120" 
                        y1="80" y2="380" 
                        stroke="#F3F4F6" stroke-width="1" opacity="0.6"/><line x1="218" x2="218" 
                        y1="80" y2="380" 
                        stroke="#F3F4F6" stroke-width="1" opacity="0.6"/><line x1="316" x2="316" 
                        y1="80" y2="380" 
                        stroke="#F3F4F6" stroke-width="1" opacity="0.6"/><line x1="512" x2="512" 
                        y1="80" y2="380" 
                        stroke="#F3F4F6" stroke-width="1" opacity="0.6"/><line x1="610" x2="610" 
                        y1="80" y2="380" 
                        stroke="#F3F4F6" stroke-width="1" opacity="0.6"/><line x1="806" x2="806" 
                        y1="80" y2="380" 
                        stroke="#F3F4F6" stroke-width="1" opacity="0.6"/><line x1="904" x2="904" 
                        y1="80" y2="380" 
                        stroke="#F3F4F6" stroke-width="1" opacity="0.6"/><line x1="1100" x2="1100" 
                        y1="80" y2="380" 
                        stroke="#F3F4F6" stroke-width="1" opacity="0.6"/>
  
  <!-- Average line (dashed) -->
  <line x1="120" x2="1100" 
        y1="227.27272727272737" y2="227.27272727272737" 
        stroke="#3B82F6" stroke-width="2" stroke-dasharray="5,5" opacity="0.8"/>
  
  <!-- Average line label -->
  <text x="130" y="219.27272727272737" 
        font-family="Arial, sans-serif" font-size="12" fill="#3B82F6" font-weight="600">
    Average ₹122,627
  </text>
  
  <!-- Price area fill -->
  <path d="M 120 80 C 152.66666666666666 80, 185.33333333333334 103.99999999999999, 218 103.99999999999999 C 250.66666666666666 103.99999999999999, 283.3333333333333 140, 316 140 C 348.6666666666667 140, 381.3333333333333 164, 414 164 C 446.6666666666667 164, 479.3333333333333 200, 512 200 C 544.6666666666666 200, 577.3333333333334 224, 610 224 C 642.6666666666666 224, 675.3333333333334 260, 708 260 C 740.6666666666666 260, 773.3333333333334 284, 806 284 C 838.6666666666666 284, 871.3333333333334 320, 904 320 C 936.6666666666666 320, 969.3333333333334 344, 1002 344 C 1034.6666666666667 344, 1067.3333333333333 380, 1100 380 L 1100 380 L 120 380 Z" 
        fill="url(#priceGradient)"/>
  
  <!-- Main price line -->
  <path d="M 120 80 C 152.66666666666666 80, 185.33333333333334 103.99999999999999, 218 103.99999999999999 C 250.66666666666666 103.99999999999999, 283.3333333333333 140, 316 140 C 348.6666666666667 140, 381.3333333333333 164, 414 164 C 446.6666666666667 164, 479.3333333333333 200, 512 200 C 544.6666666666666 200, 577.3333333333334 224, 610 224 C 642.6666666666666 224, 675.3333333333334 260, 708 260 C 740.6666666666666 260, 773.3333333333334 284, 806 284 C 838.6666666666666 284, 871.3333333333334 320, 904 320 C 936.6666666666666 320, 969.3333333333334 344, 1002 344 C 1034.6666666666667 344, 1067.3333333333333 380, 1100 380" fill="none" stroke="#FF6B35" stroke-width="3" 
        stroke-linecap="round" stroke-linejoin="round" filter="url(#dropshadow)"/>
  
  <!-- Data points with rupee symbols -->
  
      <circle cx="120" cy="80" r="8" fill="#F59E0B" 
              stroke="white" stroke-width="3" filter="url(#dropshadow)"/>
      <text x="120" y="82" text-anchor="middle" 
            font-family="Arial, sans-serif" font-size="10" fill="white" font-weight="bold">₹</text>
    
      <circle cx="218" cy="103.99999999999999" r="6" fill="#FF6B35" 
              stroke="white" stroke-width="3" filter="url(#dropshadow)"/>
      <text x="218" y="105.99999999999999" text-anchor="middle" 
            font-family="Arial, sans-serif" font-size="10" fill="white" font-weight="bold">₹</text>
    
      <circle cx="316" cy="140" r="6" fill="#FF6B35" 
              stroke="white" stroke-width="3" filter="url(#dropshadow)"/>
      <text x="316" y="142" text-anchor="middle" 
            font-family="Arial, sans-serif" font-size="10" fill="white" font-weight="bold">₹</text>
    
      <circle cx="414" cy="164" r="6" fill="#FF6B35" 
              stroke="white" stroke-width="3" filter="url(#dropshadow)"/>
      <text x="414" y="166" text-anchor="middle" 
            font-family="Arial, sans-serif" font-size="10" fill="white" font-weight="bold">₹</text>
    
      <circle cx="512" cy="200" r="6" fill="#FF6B35" 
              stroke="white" stroke-width="3" filter="url(#dropshadow)"/>
      <text x="512" y="202" text-anchor="middle" 
            font-family="Arial, sans-serif" font-size="10" fill="white" font-weight="bold">₹</text>
    
      <circle cx="610" cy="224" r="6" fill="#FF6B35" 
              stroke="white" stroke-width="3" filter="url(#dropshadow)"/>
      <text x="610" y="226" text-anchor="middle" 
            font-family="Arial, sans-serif" font-size="10" fill="white" font-weight="bold">₹</text>
    
      <circle cx="708" cy="260" r="6" fill="#FF6B35" 
              stroke="white" stroke-width="3" filter="url(#dropshadow)"/>
      <text x="708" y="262" text-anchor="middle" 
            font-family="Arial, sans-serif" font-size="10" fill="white" font-weight="bold">₹</text>
    
      <circle cx="806" cy="284" r="6" fill="#FF6B35" 
              stroke="white" stroke-width="3" filter="url(#dropshadow)"/>
      <text x="806" y="286" text-anchor="middle" 
            font-family="Arial, sans-serif" font-size="10" fill="white" font-weight="bold">₹</text>
    
      <circle cx="904" cy="320" r="6" fill="#FF6B35" 
              stroke="white" stroke-width="3" filter="url(#dropshadow)"/>
      <text x="904" y="322" text-anchor="middle" 
            font-family="Arial, sans-serif" font-size="10" fill="white" font-weight="bold">₹</text>
    
      <circle cx="1002" cy="344" r="6" fill="#FF6B35" 
              stroke="white" stroke-width="3" filter="url(#dropshadow)"/>
      <text x="1002" y="346" text-anchor="middle" 
            font-family="Arial, sans-serif" font-size="10" fill="white" font-weight="bold">₹</text>
    
      <circle cx="1100" cy="380" r="8" fill="#8B5CF6" 
              stroke="white" stroke-width="3" filter="url(#dropshadow)"/>
      <text x="1100" y="382" text-anchor="middle" 
            font-family="Arial, sans-serif" font-size="10" fill="white" font-weight="bold">₹</text>
    
  
  <!-- Price labels on y-axis -->
  <text x="105" y="85" text-anchor="end" 
           font-family="Arial, sans-serif" font-size="13" fill="#374151" font-weight="500">
       ₹134,900
     </text><text x="105" y="145" text-anchor="end" 
           font-family="Arial, sans-serif" font-size="13" fill="#374151" font-weight="500">
       ₹129,900
     </text><text x="105" y="205" text-anchor="end" 
           font-family="Arial, sans-serif" font-size="13" fill="#374151" font-weight="500">
       ₹124,900
     </text><text x="105" y="265" text-anchor="end" 
           font-family="Arial, sans-serif" font-size="13" fill="#374151" font-weight="500">
       ₹119,900
     </text><text x="105" y="325" text-anchor="end" 
           font-family="Arial, sans-serif" font-size="13" fill="#374151" font-weight="500">
       ₹114,900
     </text><text x="105" y="385" text-anchor="end" 
           font-family="Arial, sans-serif" font-size="13" fill="#374151" font-weight="500">
       ₹109,900
     </text>
  
  <!-- Date labels on x-axis with rotation -->
  <g transform="translate(120, 420) rotate(-45 0 0)">
       <text x="0" y="0" text-anchor="middle" 
             font-family="Arial, sans-serif" font-size="11" fill="#374151" font-weight="500">
         AUG 25
       </text>
     </g><g transform="translate(218, 420) rotate(-45 0 0)">
       <text x="0" y="0" text-anchor="middle" 
             font-family="Arial, sans-serif" font-size="11" fill="#374151" font-weight="500">
         AUG 12
       </text>
     </g><g transform="translate(316, 420) rotate(-45 0 0)">
       <text x="0" y="0" text-anchor="middle" 
             font-family="Arial, sans-serif" font-size="11" fill="#374151" font-weight="500">
         AUG 15
       </text>
     </g><g transform="translate(512, 420) rotate(-45 0 0)">
       <text x="0" y="0" text-anchor="middle" 
             font-family="Arial, sans-serif" font-size="11" fill="#374151" font-weight="500">
         AUG 22
       </text>
     </g><g transform="translate(610, 420) rotate(-45 0 0)">
       <text x="0" y="0" text-anchor="middle" 
             font-family="Arial, sans-serif" font-size="11" fill="#374151" font-weight="500">
         AUG 25
       </text>
     </g><g transform="translate(806, 420) rotate(-45 0 0)">
       <text x="0" y="0" text-anchor="middle" 
             font-family="Arial, sans-serif" font-size="11" fill="#374151" font-weight="500">
         SEPT 1
       </text>
     </g><g transform="translate(904, 420) rotate(-45 0 0)">
       <text x="0" y="0" text-anchor="middle" 
             font-family="Arial, sans-serif" font-size="11" fill="#374151" font-weight="500">
         THU
       </text>
     </g><g transform="translate(1100, 420) rotate(-45 0 0)">
       <text x="0" y="0" text-anchor="middle" 
             font-family="Arial, sans-serif" font-size="11" fill="#374151" font-weight="500">
         TODAY
       </text>
     </g>
  
  <!-- Chart title -->
  <text x="600" y="40" text-anchor="middle" font-family="Arial, sans-serif" 
        font-size="20" fill="#1F2937" font-weight="700">
    iPhone 15 Pro Max (256GB) - Price Drop Alert!
  </text>
  
  <!-- Price statistics box -->
  <g transform="translate(880, 100)">
    <rect width="200" height="90" fill="white" stroke="#D1D5DB" stroke-width="1" rx="8" 
          filter="url(#dropshadow)"/>
    <text x="15" y="25" font-family="Arial, sans-serif" font-size="14" fill="#374151" font-weight="600">Price Statistics</text>
    <text x="15" y="45" font-family="Arial, sans-serif" font-size="12" fill="#1F2937">Current: ₹109,900</text>
    <text x="15" y="62" font-family="Arial, sans-serif" font-size="12" fill="#1F2937">Lowest: ₹109,900</text>
    <text x="15" y="79" font-family="Arial, sans-serif" font-size="12" fill="#1F2937">Reduction: 18.5%</text>
  </g>
  
  <!-- Legend -->
  <g transform="translate(120, 460)">
    <circle cx="0" cy="0" r="5" fill="#EF4444"/>
    <text x="20" y="5" font-family="Arial, sans-serif" font-size="12" fill="#374151" font-weight="500">First Price</text>
    
    <circle cx="100" cy="0" r="5" fill="#10B981"/>
    <text x="120" y="5" font-family="Arial, sans-serif" font-size="12" fill="#374151" font-weight="500">Current Price</text>
    
    <circle cx="200" cy="0" r="5" fill="#8B5CF6"/>
    <text x="220" y="5" font-family="Arial, sans-serif" font-size="12" fill="#374151" font-weight="500">Lowest Price</text>
    
    <circle cx="300" cy="0" r="5" fill="#F59E0B"/>
    <text x="320" y="5" font-family="Arial, sans-serif" font-size="12" fill="#374151" font-weight="500">Highest Price</text>
  </g>
</svg>