<?xml version="1.0" encoding="UTF-8"?>
<svg width="1000" height="400" xmlns="http://www.w3.org/2000/svg">
  <defs>
    <!-- Gradient for price area -->
    <linearGradient id="priceGradient" x1="0%" y1="0%" x2="0%" y2="100%">
      <stop offset="0%" style="stop-color:#3B82F6;stop-opacity:0.3" />
      <stop offset="100%" style="stop-color:#3B82F6;stop-opacity:0.05" />
    </linearGradient>
    
    <!-- Gradient for price line -->
    <linearGradient id="lineGradient" x1="0%" y1="0%" x2="100%" y2="0%">
      <stop offset="0%" style="stop-color:#EF4444" />
      <stop offset="50%" style="stop-color:#F59E0B" />
      <stop offset="100%" style="stop-color:#10B981" />
    </linearGradient>
    
    <!-- Drop shadow filter -->
    <filter id="dropshadow" x="-50%" y="-50%" width="200%" height="200%">
      <feDropShadow dx="2" dy="2" stdDeviation="3" flood-color="#000000" flood-opacity="0.3"/>
    </filter>
  </defs>
  
  <!-- Background -->
  <rect width="1000" height="400" fill="#F8FAFC"/>
  
  <!-- Chart background -->
  <rect x="100" y="60" width="820" height="260" 
        fill="white" stroke="#E2E8F0" stroke-width="1" rx="8"/>
  
  <!-- Grid lines -->
  <line x1="100" x2="920" 
                        y1="60" y2="60" 
                        stroke="#E2E8F0" stroke-width="1"/><line x1="100" x2="920" 
                        y1="125" y2="125" 
                        stroke="#E2E8F0" stroke-width="1"/><line x1="100" x2="920" 
                        y1="190" y2="190" 
                        stroke="#E2E8F0" stroke-width="1"/><line x1="100" x2="920" 
                        y1="255" y2="255" 
                        stroke="#E2E8F0" stroke-width="1"/><line x1="100" x2="920" 
                        y1="320" y2="320" 
                        stroke="#E2E8F0" stroke-width="1"/><line x1="100" x2="100" 
                        y1="60" y2="320" 
                        stroke="#E2E8F0" stroke-width="1"/><line x1="217.14285714285714" x2="217.14285714285714" 
                        y1="60" y2="320" 
                        stroke="#E2E8F0" stroke-width="1"/><line x1="334.2857142857143" x2="334.2857142857143" 
                        y1="60" y2="320" 
                        stroke="#E2E8F0" stroke-width="1"/><line x1="568.5714285714286" x2="568.5714285714286" 
                        y1="60" y2="320" 
                        stroke="#E2E8F0" stroke-width="1"/><line x1="685.7142857142858" x2="685.7142857142858" 
                        y1="60" y2="320" 
                        stroke="#E2E8F0" stroke-width="1"/><line x1="920" x2="920" 
                        y1="60" y2="320" 
                        stroke="#E2E8F0" stroke-width="1"/>
  
  <!-- Price area fill -->
  <path d="M 100 60 C 139.04761904761904 60, 178.0952380952381 97.14285714285715, 217.14285714285714 97.14285714285715 C 256.1904761904762 97.14285714285715, 295.23809523809524 134.28571428571428, 334.2857142857143 134.28571428571428 C 373.3333333333333 134.28571428571428, 412.38095238095235 171.42857142857144, 451.4285714285714 171.42857142857144 C 490.4761904761904 171.42857142857144, 529.5238095238095 208.57142857142856, 568.5714285714286 208.57142857142856 C 607.6190476190476 208.57142857142856, 646.6666666666667 245.71428571428572, 685.7142857142858 245.71428571428572 C 724.7619047619048 245.71428571428572, 763.8095238095237 282.8571428571429, 802.8571428571428 282.8571428571429 C 841.9047619047618 282.8571428571429, 880.952380952381 320, 920 320 L 920 320 L 100 320 Z" 
        fill="url(#priceGradient)"/>
  
  <!-- Price line with gradient -->
  <path d="M 100 60 C 139.04761904761904 60, 178.0952380952381 97.14285714285715, 217.14285714285714 97.14285714285715 C 256.1904761904762 97.14285714285715, 295.23809523809524 134.28571428571428, 334.2857142857143 134.28571428571428 C 373.3333333333333 134.28571428571428, 412.38095238095235 171.42857142857144, 451.4285714285714 171.42857142857144 C 490.4761904761904 171.42857142857144, 529.5238095238095 208.57142857142856, 568.5714285714286 208.57142857142856 C 607.6190476190476 208.57142857142856, 646.6666666666667 245.71428571428572, 685.7142857142858 245.71428571428572 C 724.7619047619048 245.71428571428572, 763.8095238095237 282.8571428571429, 802.8571428571428 282.8571428571429 C 841.9047619047618 282.8571428571429, 880.952380952381 320, 920 320" fill="none" stroke="url(#lineGradient)" stroke-width="4" 
        stroke-linecap="round" stroke-linejoin="round" filter="url(#dropshadow)"/>
  
  <!-- Price points -->
  <circle cx="100" cy="60" r="6" fill="#F59E0B" 
                    stroke="white" stroke-width="2" filter="url(#dropshadow)"/><circle cx="217.14285714285714" cy="97.14285714285715" r="4" fill="#3B82F6" 
                    stroke="white" stroke-width="2" filter="url(#dropshadow)"/><circle cx="334.2857142857143" cy="134.28571428571428" r="4" fill="#3B82F6" 
                    stroke="white" stroke-width="2" filter="url(#dropshadow)"/><circle cx="451.4285714285714" cy="171.42857142857144" r="4" fill="#3B82F6" 
                    stroke="white" stroke-width="2" filter="url(#dropshadow)"/><circle cx="568.5714285714286" cy="208.57142857142856" r="4" fill="#3B82F6" 
                    stroke="white" stroke-width="2" filter="url(#dropshadow)"/><circle cx="685.7142857142858" cy="245.71428571428572" r="4" fill="#3B82F6" 
                    stroke="white" stroke-width="2" filter="url(#dropshadow)"/><circle cx="802.8571428571428" cy="282.8571428571429" r="4" fill="#3B82F6" 
                    stroke="white" stroke-width="2" filter="url(#dropshadow)"/><circle cx="920" cy="320" r="6" fill="#8B5CF6" 
                    stroke="white" stroke-width="2" filter="url(#dropshadow)"/>
  
  <!-- Price labels on y-axis -->
  <text x="90" y="64" text-anchor="end" 
           font-family="Arial, sans-serif" font-size="12" fill="#64748B" font-weight="500">
       ₹124,999
     </text><text x="90" y="129" text-anchor="end" 
           font-family="Arial, sans-serif" font-size="12" fill="#64748B" font-weight="500">
       ₹116,249
     </text><text x="90" y="194" text-anchor="end" 
           font-family="Arial, sans-serif" font-size="12" fill="#64748B" font-weight="500">
       ₹107,499
     </text><text x="90" y="259" text-anchor="end" 
           font-family="Arial, sans-serif" font-size="12" fill="#64748B" font-weight="500">
       ₹98,749
     </text><text x="90" y="324" text-anchor="end" 
           font-family="Arial, sans-serif" font-size="12" fill="#64748B" font-weight="500">
       ₹89,999
     </text>
  
  <!-- Date labels on x-axis -->
  <text x="100" y="345" text-anchor="middle" 
           font-family="Arial, sans-serif" font-size="11" fill="#64748B" font-weight="500">
       20 Aug
     </text><text x="217.14285714285714" y="345" text-anchor="middle" 
           font-family="Arial, sans-serif" font-size="11" fill="#64748B" font-weight="500">
       22 Aug
     </text><text x="334.2857142857143" y="345" text-anchor="middle" 
           font-family="Arial, sans-serif" font-size="11" fill="#64748B" font-weight="500">
       25 Aug
     </text><text x="568.5714285714286" y="345" text-anchor="middle" 
           font-family="Arial, sans-serif" font-size="11" fill="#64748B" font-weight="500">
       1 Sept
     </text><text x="685.7142857142858" y="345" text-anchor="middle" 
           font-family="Arial, sans-serif" font-size="11" fill="#64748B" font-weight="500">
       Thu
     </text><text x="920" y="345" text-anchor="middle" 
           font-family="Arial, sans-serif" font-size="11" fill="#64748B" font-weight="500">
       Today
     </text>
  
  <!-- Chart title -->
  <text x="500" y="30" text-anchor="middle" font-family="Arial, sans-serif" 
        font-size="18" fill="#1E293B" font-weight="600">
    Samsung Galaxy S24 Ultra (512GB) - Flash Sale!
  </text>
  
  <!-- Price statistics -->
  <g transform="translate(720, 80)">
    <rect width="190" height="80" fill="white" stroke="#E2E8F0" stroke-width="1" rx="6"/>
    <text x="10" y="20" font-family="Arial, sans-serif" font-size="12" fill="#64748B" font-weight="600">Price Statistics</text>
    <text x="10" y="38" font-family="Arial, sans-serif" font-size="11" fill="#1E293B">Current: ₹89,999</text>
    <text x="10" y="52" font-family="Arial, sans-serif" font-size="11" fill="#1E293B">Lowest: ₹89,999</text>
    <text x="10" y="66" font-family="Arial, sans-serif" font-size="11" fill="#1E293B">Reduction: 28.0%</text>
  </g>
  
  <!-- Legend -->
  <g transform="translate(100, 370)">
    <circle cx="0" cy="0" r="4" fill="#EF4444"/>
    <text x="15" y="4" font-family="Arial, sans-serif" font-size="11" fill="#64748B">First Price</text>
    
    <circle cx="80" cy="0" r="4" fill="#10B981"/>
    <text x="95" y="4" font-family="Arial, sans-serif" font-size="11" fill="#64748B">Current Price</text>
    
    <circle cx="160" cy="0" r="4" fill="#8B5CF6"/>
    <text x="175" y="4" font-family="Arial, sans-serif" font-size="11" fill="#64748B">Lowest Price</text>
    
    <circle cx="240" cy="0" r="4" fill="#F59E0B"/>
    <text x="255" y="4" font-family="Arial, sans-serif" font-size="11" fill="#64748B">Highest Price</text>
  </g>
</svg>